<?xml version="1.0" encoding="UTF-8"?>
<svg id="Layer_2" data-name="Layer 2" xmlns="http://www.w3.org/2000/svg" viewBox="0 0 155.72 32.01">
  <defs>
    <style>
      .cls-1 {
        fill: #f1f1f1;
      }

      .cls-2 {
        fill: #77c043;
      }
    </style>
  </defs>
  <g id="Layer_1-2" data-name="Layer 1">
    <g>
      <path class="cls-2" d="M21.49,6.3c-.93-1.92-2.25-3.41-3.97-4.45-1.71-1.05-3.73-1.58-6.07-1.58s-4.36.53-6.08,1.58c-1.71,1.04-3.03,2.52-3.97,4.45-.94,1.92-1.4,4.19-1.4,6.82v.04c0,2.63.46,4.91,1.39,6.84.94,1.92,2.26,3.41,3.97,4.46,1.71,1.05,3.74,1.57,6.1,1.57s4.38-.52,6.08-1.57c1.71-1.05,3.03-2.54,3.95-4.46.93-1.92,1.4-4.2,1.4-6.84v-.04c0-2.63-.48-4.9-1.4-6.82ZM7.71,5.23c1.07-.74,2.31-1.11,3.74-1.11s2.68.37,3.74,1.11c1.06.72,1.88,1.77,2.45,3.12.26.61.48,1.3.61,2.02L7.54,5.36s.12-.1.17-.14ZM15.22,21.08c-1.06.74-2.31,1.11-3.77,1.11s-2.68-.37-3.74-1.11c-1.07-.74-1.88-1.77-2.46-3.12-.26-.64-.48-1.32-.62-2.07l10.79,5.05c-.07.05-.13.1-.2.15ZM17.68,17.89l-13.22-6.2c.11-1.23.37-2.33.78-3.32l13.2,6.18c-.09,1.24-.36,2.35-.75,3.33Z"/>
      <path class="cls-2" d="M25.89,7.31h4.14v2.87h.11c.46-1,1.14-1.77,2.05-2.36.91-.59,2.04-.89,3.37-.89,1.94,0,3.46.61,4.52,1.83,1.06,1.21,1.6,2.89,1.6,5.01v11.83h-4.17v-10.97c0-1.3-.29-2.31-.89-3.02-.6-.71-1.48-1.06-2.66-1.06-.79,0-1.48.19-2.08.56-.6.37-1.04.89-1.38,1.56-.32.65-.49,1.43-.49,2.32v10.62h-4.14V7.31Z"/>
      <path class="cls-1" d="M45,7.31h4.14v3.15h.11c.34-.74.78-1.36,1.31-1.88s1.15-.93,1.85-1.21c.71-.29,1.48-.44,2.31-.44,1.51,0,2.8.38,3.9,1.15,1.1.76,1.94,1.86,2.54,3.29.6,1.43.9,3.12.9,5.09s-.3,3.66-.9,5.08c-.6,1.42-1.44,2.51-2.53,3.28-1.08.76-2.37,1.15-3.85,1.15-.83,0-1.61-.14-2.33-.41-.71-.27-1.35-.67-1.9-1.19-.54-.52-.99-1.13-1.32-1.84h-.11v9.13h-4.14V7.31h.01ZM55.82,21.63c.65-.48,1.15-1.16,1.49-2.05.36-.89.53-1.92.53-3.11s-.17-2.31-.53-3.18c-.36-.87-.85-1.56-1.51-2.03-.66-.48-1.42-.71-2.3-.71s-1.61.25-2.27.72c-.66.48-1.18,1.16-1.55,2.05s-.56,1.92-.56,3.12.19,2.25.56,3.12c.37.87.89,1.56,1.55,2.05.66.48,1.42.72,2.27.72s1.67-.25,2.3-.72h.01Z"/>
      <path class="cls-1" d="M78.69,9.81c-.6-.91-1.44-1.61-2.53-2.13-1.08-.5-2.37-.76-3.85-.76s-2.79.25-3.87.74c-1.08.49-1.93,1.17-2.55,2.03-.61.86-.97,1.83-1.06,2.91v.2h3.84l.04-.15c.15-.68.52-1.23,1.1-1.66.6-.44,1.38-.64,2.35-.64,1.06,0,1.86.27,2.43.81.57.53.85,1.26.85,2.18v1.26l-4.63.3c-1.43.1-2.64.37-3.65.82-1.01.45-1.77,1.06-2.3,1.84-.53.78-.79,1.71-.79,2.8v.04c0,1.08.25,2.03.74,2.87.5.83,1.19,1.49,2.09,1.95.9.46,1.93.7,3.11.7.78,0,1.51-.12,2.2-.38.69-.26,1.3-.61,1.83-1.09.54-.48.97-1.02,1.31-1.65h.11v2.81h4.15v-12.58c0-1.23-.3-2.31-.9-3.21h0ZM74.89,20.77c-.37.57-.87,1.02-1.49,1.36-.63.33-1.35.5-2.14.5-.91,0-1.65-.22-2.2-.64-.56-.44-.83-1.02-.83-1.77s.28-1.32.82-1.76c.54-.44,1.34-.7,2.35-.76l4.05-.26v1.38c0,.72-.19,1.38-.56,1.95Z"/>
      <path class="cls-1" d="M82.94,7.31h4.14v3.15h.11c.26-1.11.75-1.97,1.47-2.59.71-.63,1.57-.94,2.61-.94.25,0,.5.01.74.05.24.04.42.08.58.12v3.89c-.17-.07-.41-.12-.71-.18-.3-.04-.63-.07-.99-.07-.78,0-1.45.16-2.02.49-.57.33-1.01.81-1.31,1.45-.3.63-.45,1.41-.45,2.31v10.62h-4.14V7.31h-.01Z"/>
      <path class="cls-1" d="M106.06,25.6h4.8l-7.33-10.41,7.02-7.87h-4.8l-6.63,7.59h-.09V.71h-4.15v24.89h4.15v-6.33l1.4-1.53,5.62,7.86Z"/>
      <path class="cls-1" d="M113.02,4c-.45-.46-.67-1.01-.67-1.65s.22-1.21.67-1.66c.45-.45.99-.68,1.64-.68s1.2.23,1.65.68c.45.45.67,1.01.67,1.66s-.22,1.2-.67,1.65c-.45.46-.99.7-1.65.7s-1.19-.23-1.64-.7ZM112.58,7.31h4.17v18.29h-4.17V7.31Z"/>
      <path class="cls-1" d="M120.26,7.31h4.14v2.87h.11c.46-1,1.14-1.77,2.05-2.36.91-.59,2.04-.89,3.37-.89,1.94,0,3.46.61,4.52,1.83,1.06,1.21,1.6,2.89,1.6,5.01v11.83h-4.17v-10.97c0-1.3-.29-2.31-.89-3.02-.6-.71-1.48-1.06-2.66-1.06-.79,0-1.48.19-2.08.56-.59.37-1.04.89-1.38,1.56-.32.65-.49,1.43-.49,2.32v10.62h-4.14V7.31Z"/>
      <path class="cls-1" d="M143.29,31.34c-1.16-.44-2.09-1.05-2.79-1.81-.69-.76-1.12-1.64-1.28-2.59l-.04-.15h4.07l.07.14c.22.53.69.97,1.38,1.32.7.35,1.59.53,2.65.53,1.36,0,2.41-.34,3.13-1.04.73-.7,1.08-1.61,1.08-2.78v-2.63h-.08c-.32.66-.75,1.21-1.3,1.69-.54.48-1.16.85-1.89,1.11-.73.26-1.51.4-2.35.4-1.48,0-2.78-.37-3.88-1.12-1.1-.75-1.94-1.81-2.54-3.18-.6-1.38-.9-3.02-.9-4.91s.3-3.6.91-4.99c.61-1.39,1.47-2.46,2.57-3.22,1.1-.76,2.41-1.13,3.9-1.13.83,0,1.6.15,2.3.44.7.29,1.32.7,1.85,1.21.53.52.97,1.13,1.3,1.83h.11v-3.11h4.17v17.77c0,1.38-.34,2.59-1.02,3.63-.68,1.04-1.64,1.84-2.9,2.43-1.26.59-2.74.86-4.44.86-1.56,0-2.92-.22-4.09-.67h.01ZM149.53,21.47c.65-.48,1.15-1.15,1.51-2.03.36-.87.54-1.9.54-3.07s-.18-2.22-.56-3.1c-.37-.87-.87-1.54-1.52-2.01-.65-.48-1.4-.71-2.26-.71s-1.67.23-2.33.71c-.66.48-1.16,1.13-1.52,2.01-.36.86-.53,1.9-.53,3.08s.17,2.25.53,3.11c.36.87.86,1.54,1.52,2.01.66.48,1.43.71,2.33.71s1.63-.23,2.28-.71h.01Z"/>
    </g>
  </g>
</svg>