<?xml version="1.0" encoding="UTF-8"?>
<svg id="Layer_2" data-name="Layer 2" xmlns="http://www.w3.org/2000/svg" viewBox="0 0 41.68 25.76">
  <defs>
    <style>
      .cls-1 {
        fill: #77c043;
      }
    </style>
  </defs>
  <g id="Layer_1-2" data-name="Layer 1">
    <g>
      <path class="cls-1" d="M21.49,6.03c-.93-1.92-2.25-3.41-3.97-4.45-1.71-1.05-3.73-1.58-6.07-1.58s-4.36.53-6.08,1.58c-1.71,1.04-3.03,2.52-3.97,4.45-.94,1.92-1.4,4.19-1.4,6.82v.04c0,2.63.46,4.91,1.39,6.84.94,1.92,2.26,3.41,3.97,4.46,1.71,1.05,3.74,1.57,6.1,1.57s4.38-.52,6.08-1.57c1.71-1.05,3.03-2.54,3.95-4.46.93-1.92,1.4-4.2,1.4-6.84v-.04c0-2.63-.48-4.9-1.4-6.82ZM7.71,4.95c1.07-.74,2.31-1.11,3.74-1.11s2.68.37,3.74,1.11c1.06.72,1.88,1.77,2.45,3.12.26.61.48,1.3.61,2.02L7.54,5.09s.12-.1.17-.14ZM15.22,20.81c-1.06.74-2.31,1.11-3.77,1.11s-2.68-.37-3.74-1.11c-1.07-.74-1.88-1.77-2.46-3.12-.26-.64-.48-1.32-.62-2.07l10.79,5.05c-.07.05-.13.1-.2.15ZM17.68,17.62l-13.22-6.2c.11-1.23.37-2.33.78-3.32l13.2,6.18c-.09,1.24-.36,2.35-.75,3.33Z"/>
      <path class="cls-1" d="M25.89,7.04h4.14v2.87h.11c.46-1,1.14-1.77,2.05-2.36.91-.59,2.04-.89,3.37-.89,1.94,0,3.46.61,4.52,1.83,1.06,1.21,1.6,2.89,1.6,5.01v11.83h-4.17v-10.97c0-1.3-.29-2.31-.89-3.02-.6-.71-1.48-1.06-2.66-1.06-.79,0-1.48.19-2.08.56-.6.37-1.04.89-1.38,1.56-.32.65-.49,1.43-.49,2.32v10.62h-4.14V7.04Z"/>
    </g>
  </g>
</svg>